<?xml version="1.0" encoding="UTF-8"?>
<svg id="Camada_1" xmlns="http://www.w3.org/2000/svg" version="1.1" viewBox="0 0 160 160">
  <!-- Generator: Adobe Illustrator 30.2.1, SVG Export Plug-In . SVG Version: 2.1.1 Build 1)  -->
  <defs>
    <style>
      .st0 {
        fill: #fff;
      }

      .st1 {
        fill: #e53323;
      }
    </style>
  </defs>
  <circle class="st0" cx="80.48" cy="79.64" r="66.02"/>
  <path class="st1" d="M108.41,69.58v-27.62c0-1.69-1.39-3.07-3.08-3.07h-1.02c-1.69,0-3.07,1.38-3.07,3.07v27.62h7.18Z"/>
  <path class="st1" d="M115.18,69.58v-23.07c0-1.35-1.11-2.46-2.46-2.46h-.82c-1.35,0-2.46,1.11-2.46,2.46v23.07h5.74Z"/>
  <path class="st1" d="M120.79,69.58v-19.43c0-1.08-.88-1.97-1.97-1.97h-.66c-1.08,0-1.97.89-1.97,1.97v19.43h4.59Z"/>
  <path class="st1" d="M59.97,69.58v-27.62c0-1.69-1.39-3.07-3.08-3.07h-1.03c-1.69,0-3.07,1.38-3.07,3.07v27.62h7.18Z"/>
  <path class="st1" d="M51.76,69.58v-23.07c0-1.35-1.11-2.46-2.46-2.46h-.82c-1.35,0-2.46,1.11-2.46,2.46v23.07h5.74Z"/>
  <path class="st1" d="M45,69.58v-19.43c0-1.08-.89-1.97-1.97-1.97h-.66c-1.08,0-1.97.89-1.97,1.97v19.43h4.59Z"/>
  <rect class="st1" x="61.18" y="61.35" width="38.83" height="6.83"/>
  <rect class="st1" x="35.81" y="61.35" width="3.73" height="6.83"/>
  <rect class="st1" x="121.42" y="61.35" width="3.73" height="6.83"/>
  <path d="M134.09,72.7h-1.06v-1.13h1.06v1.13ZM131.97,72.7h-1.06v-1.13h1.06v1.13ZM129.85,72.7h-1.06v-1.13h1.06v1.13ZM127.72,72.7h-1.06v-1.13h1.06v1.13ZM125.6,72.7h-1.06v-1.13h1.06v1.13ZM123.48,72.7h-1.06v-1.13h1.06v1.13ZM121.35,72.7h-1.06v-1.13h1.06v1.13ZM119.23,72.7h-1.06v-1.13h1.06v1.13ZM117.11,72.7h-1.06v-1.13h1.06v1.13ZM114.98,72.7h-1.06v-1.13h1.06v1.13ZM112.86,72.7h-1.06v-1.13h1.06v1.13ZM110.74,72.7h-1.06v-1.13h1.06v1.13ZM108.61,72.7h-1.06v-1.13h1.06v1.13ZM106.49,72.7h-1.06v-1.13h1.06v1.13ZM104.37,72.7h-1.06v-1.13h1.06v1.13ZM102.25,72.7h-1.06v-1.13h1.06v1.13ZM100.12,72.7h-1.06v-1.13h1.06v1.13ZM98,72.7h-1.06v-1.13h1.06v1.13ZM95.88,72.7h-1.06v-1.13h1.06v1.13ZM93.75,72.7h-1.06v-1.13h1.06v1.13ZM91.63,72.7h-1.06v-1.13h1.06v1.13ZM89.51,72.7h-1.06v-1.13h1.06v1.13ZM87.38,72.7h-1.06v-1.13h1.06v1.13ZM85.26,72.7h-1.06v-1.13h1.06v1.13ZM83.14,72.7h-1.06v-1.13h1.06v1.13ZM81.01,72.7h-1.06v-1.13h1.06v1.13ZM78.89,72.7h-1.06v-1.13h1.06v1.13ZM76.77,72.7h-1.06v-1.13h1.06v1.13ZM74.64,72.7h-1.06v-1.13h1.06v1.13ZM72.52,72.7h-1.06v-1.13h1.06v1.13ZM70.4,72.7h-1.06v-1.13h1.06v1.13ZM68.27,72.7h-1.06v-1.13h1.06v1.13ZM66.15,72.7h-1.06v-1.13h1.06v1.13ZM64.03,72.7h-1.06v-1.13h1.06v1.13ZM61.9,72.7h-1.06v-1.13h1.06v1.13ZM59.78,72.7h-1.06v-1.13h1.06v1.13ZM57.66,72.7h-1.06v-1.13h1.06v1.13ZM55.53,72.7h-1.06v-1.13h1.06v1.13ZM53.41,72.7h-1.06v-1.13h1.06v1.13ZM51.29,72.7h-1.06v-1.13h1.06v1.13ZM49.17,72.7h-1.06v-1.13h1.06v1.13ZM47.04,72.7h-1.06v-1.13h1.06v1.13ZM44.92,72.7h-1.06v-1.13h1.06v1.13ZM42.79,72.7h-1.06v-1.13h1.06v1.13ZM40.67,72.7h-1.06v-1.13h1.06v1.13ZM38.55,72.7h-1.06v-1.13h1.06v1.13ZM36.42,72.7h-1.06v-1.13h1.06v1.13ZM34.3,72.7h-1.06v-1.13h1.06v1.13ZM32.18,72.7h-1.06v-1.13h1.06v1.13ZM30.05,72.7h-1.06v-1.13h1.06v1.13ZM27.93,72.7h-1.06v-1.13h1.06v1.13Z"/>
  <path d="M134.09,98.14h-1.06v-1.13h1.06v1.13ZM131.97,98.14h-1.06v-1.13h1.06v1.13ZM129.85,98.14h-1.06v-1.13h1.06v1.13ZM127.72,98.14h-1.06v-1.13h1.06v1.13ZM125.6,98.14h-1.06v-1.13h1.06v1.13ZM123.48,98.14h-1.06v-1.13h1.06v1.13ZM121.35,98.14h-1.06v-1.13h1.06v1.13ZM119.23,98.14h-1.06v-1.13h1.06v1.13ZM117.11,98.14h-1.06v-1.13h1.06v1.13ZM114.98,98.14h-1.06v-1.13h1.06v1.13ZM112.86,98.14h-1.06v-1.13h1.06v1.13ZM110.74,98.14h-1.06v-1.13h1.06v1.13ZM108.61,98.14h-1.06v-1.13h1.06v1.13ZM106.49,98.14h-1.06v-1.13h1.06v1.13ZM104.37,98.14h-1.06v-1.13h1.06v1.13ZM102.25,98.14h-1.06v-1.13h1.06v1.13ZM100.12,98.14h-1.06v-1.13h1.06v1.13ZM98,98.14h-1.06v-1.13h1.06v1.13ZM95.88,98.14h-1.06v-1.13h1.06v1.13ZM93.75,98.14h-1.06v-1.13h1.06v1.13ZM91.63,98.14h-1.06v-1.13h1.06v1.13ZM89.51,98.14h-1.06v-1.13h1.06v1.13ZM87.38,98.14h-1.06v-1.13h1.06v1.13ZM85.26,98.14h-1.06v-1.13h1.06v1.13ZM83.14,98.14h-1.06v-1.13h1.06v1.13ZM81.01,98.14h-1.06v-1.13h1.06v1.13ZM78.89,98.14h-1.06v-1.13h1.06v1.13ZM76.77,98.14h-1.06v-1.13h1.06v1.13ZM74.64,98.14h-1.06v-1.13h1.06v1.13ZM72.52,98.14h-1.06v-1.13h1.06v1.13ZM70.4,98.14h-1.06v-1.13h1.06v1.13ZM68.27,98.14h-1.06v-1.13h1.06v1.13ZM66.15,98.14h-1.06v-1.13h1.06v1.13ZM64.03,98.14h-1.06v-1.13h1.06v1.13ZM61.9,98.14h-1.06v-1.13h1.06v1.13ZM59.78,98.14h-1.06v-1.13h1.06v1.13ZM57.66,98.14h-1.06v-1.13h1.06v1.13ZM55.53,98.14h-1.06v-1.13h1.06v1.13ZM53.41,98.14h-1.06v-1.13h1.06v1.13ZM51.29,98.14h-1.06v-1.13h1.06v1.13ZM49.17,98.14h-1.06v-1.13h1.06v1.13ZM47.04,98.14h-1.06v-1.13h1.06v1.13ZM44.92,98.14h-1.06v-1.13h1.06v1.13ZM42.79,98.14h-1.06v-1.13h1.06v1.13ZM40.67,98.14h-1.06v-1.13h1.06v1.13ZM38.55,98.14h-1.06v-1.13h1.06v1.13ZM36.42,98.14h-1.06v-1.13h1.06v1.13ZM34.3,98.14h-1.06v-1.13h1.06v1.13ZM32.18,98.14h-1.06v-1.13h1.06v1.13ZM30.05,98.14h-1.06v-1.13h1.06v1.13ZM27.93,98.14h-1.06v-1.13h1.06v1.13Z"/>
  <polygon points="39.45 75.96 39.45 80.22 32.73 80.22 32.73 82.59 37.57 82.59 37.57 86.63 32.73 86.63 32.73 93.09 27.35 93.09 27.35 75.96 39.45 75.96"/>
  <polygon points="39.45 75.96 39.45 80.22 32.73 80.22 32.73 82.59 37.57 82.59 37.57 86.63 32.73 86.63 32.73 93.09 27.35 93.09 27.35 75.96 39.45 75.96"/>
  <path d="M44.21,92.12c-1.42-.76-2.55-1.81-3.39-3.15-.84-1.34-1.25-2.85-1.25-4.53s.42-3.19,1.25-4.53c.84-1.34,1.97-2.38,3.39-3.13,1.42-.75,2.99-1.13,4.7-1.13s3.27.38,4.68,1.13c1.42.75,2.54,1.8,3.36,3.13.83,1.34,1.24,2.85,1.24,4.53s-.41,3.19-1.24,4.53c-.83,1.34-1.95,2.39-3.38,3.15-1.42.76-2.98,1.14-4.67,1.14s-3.27-.38-4.7-1.14M51.52,87.22c.61-.69.92-1.61.92-2.77s-.31-2.11-.92-2.8c-.61-.69-1.48-1.03-2.61-1.03s-2.02.34-2.64,1.03c-.61.69-.92,1.62-.92,2.8s.31,2.09.92,2.77c.61.69,1.49,1.03,2.64,1.03s2-.34,2.61-1.03"/>
  <path d="M44.21,92.12c-1.42-.76-2.55-1.81-3.39-3.15-.84-1.34-1.25-2.85-1.25-4.53s.42-3.19,1.25-4.53c.84-1.34,1.97-2.38,3.39-3.13,1.42-.75,2.99-1.13,4.7-1.13s3.27.38,4.68,1.13c1.42.75,2.54,1.8,3.36,3.13.83,1.34,1.24,2.85,1.24,4.53s-.41,3.19-1.24,4.53c-.83,1.34-1.95,2.39-3.38,3.15-1.42.76-2.98,1.14-4.67,1.14s-3.27-.38-4.7-1.14ZM51.52,87.22c.61-.69.92-1.61.92-2.77s-.31-2.11-.92-2.8c-.61-.69-1.48-1.03-2.61-1.03s-2.02.34-2.64,1.03c-.61.69-.92,1.62-.92,2.8s.31,2.09.92,2.77c.61.69,1.49,1.03,2.64,1.03s2-.34,2.61-1.03Z"/>
  <path d="M68.67,93.09l-3.22-6.15h-.02v6.15h-5.37v-17.14h7.99c1.39,0,2.57.25,3.56.74.98.49,1.72,1.16,2.21,2.01.49.85.74,1.8.74,2.87,0,1.15-.32,2.16-.96,3.05-.64.89-1.55,1.52-2.75,1.91l3.73,6.56h-5.91ZM65.43,83.36h2.13c.52,0,.9-.12,1.16-.35.26-.23.39-.6.39-1.1,0-.45-.13-.81-.4-1.06-.27-.26-.65-.39-1.15-.39h-2.13v2.9Z"/>
  <path d="M68.67,93.09l-3.22-6.15h-.02v6.15h-5.37v-17.14h7.99c1.39,0,2.57.25,3.56.74.98.49,1.72,1.16,2.21,2.01.49.85.74,1.8.74,2.87,0,1.15-.32,2.16-.96,3.05-.64.89-1.55,1.52-2.75,1.91l3.73,6.56h-5.91ZM65.43,83.36h2.13c.52,0,.9-.12,1.16-.35.26-.23.39-.6.39-1.1,0-.45-.13-.81-.4-1.06-.27-.26-.65-.39-1.15-.39h-2.13v2.9Z"/>
  <path d="M77.76,91.82c-1.33-.96-2.05-2.37-2.17-4.22h5.71c.08.98.52,1.48,1.31,1.48.29,0,.54-.07.74-.21.2-.14.3-.35.3-.64,0-.4-.22-.73-.65-.98-.44-.25-1.11-.54-2.03-.86-1.1-.39-2.01-.77-2.72-1.14-.72-.37-1.34-.91-1.85-1.62-.52-.71-.77-1.62-.75-2.74,0-1.11.29-2.06.86-2.84.57-.78,1.36-1.38,2.35-1.78.99-.4,2.11-.61,3.35-.61,2.1,0,3.76.48,5,1.45,1.23.97,1.88,2.33,1.95,4.09h-5.78c-.02-.48-.14-.83-.36-1.04-.23-.21-.5-.31-.82-.31-.23,0-.41.08-.56.23-.15.15-.22.37-.22.64,0,.39.21.71.64.96.43.25,1.11.55,2.05.91,1.08.4,1.97.79,2.67,1.16.7.37,1.31.89,1.83,1.55.52.66.77,1.49.77,2.49s-.26,1.99-.77,2.82c-.52.83-1.27,1.48-2.25,1.95-.98.47-2.15.7-3.51.7-2.05,0-3.74-.48-5.07-1.44"/>
  <path d="M77.76,91.82c-1.33-.96-2.05-2.37-2.17-4.22h5.71c.08.98.52,1.48,1.31,1.48.29,0,.54-.07.74-.21.2-.14.3-.35.3-.64,0-.4-.22-.73-.65-.98-.44-.25-1.11-.54-2.03-.86-1.1-.39-2.01-.77-2.72-1.14-.72-.37-1.34-.91-1.85-1.62-.52-.71-.77-1.62-.75-2.74,0-1.11.29-2.06.86-2.84.57-.78,1.36-1.38,2.35-1.78.99-.4,2.11-.61,3.35-.61,2.1,0,3.76.48,5,1.45,1.23.97,1.88,2.33,1.95,4.09h-5.78c-.02-.48-.14-.83-.36-1.04-.23-.21-.5-.31-.82-.31-.23,0-.41.08-.56.23-.15.15-.22.37-.22.64,0,.39.21.71.64.96.43.25,1.11.55,2.05.91,1.08.4,1.97.79,2.67,1.16.7.37,1.31.89,1.83,1.55.52.66.77,1.49.77,2.49s-.26,1.99-.77,2.82c-.52.83-1.27,1.48-2.25,1.95-.98.47-2.15.7-3.51.7-2.05,0-3.74-.48-5.07-1.44Z"/>
  <polygon points="104.56 75.96 104.56 80.22 100.01 80.22 100.01 93.09 94.64 93.09 94.64 80.22 90.14 80.22 90.14 75.96 104.56 75.96"/>
  <polygon points="104.56 75.96 104.56 80.22 100.01 80.22 100.01 93.09 94.64 93.09 94.64 80.22 90.14 80.22 90.14 75.96 104.56 75.96"/>
  <polygon points="111.24 80.24 111.24 82.35 116.57 82.35 116.57 86.39 111.24 86.39 111.24 88.81 117.29 88.81 117.29 93.09 105.87 93.09 105.87 75.96 117.29 75.96 117.29 80.24 111.24 80.24"/>
  <polygon points="111.24 80.24 111.24 82.35 116.57 82.35 116.57 86.39 111.24 86.39 111.24 88.81 117.29 88.81 117.29 93.09 105.87 93.09 105.87 75.96 117.29 75.96 117.29 80.24 111.24 80.24"/>
  <path d="M127.8,93.09l-3.22-6.15h-.02v6.15h-5.37v-17.14h7.99c1.39,0,2.57.25,3.56.74.98.49,1.72,1.16,2.21,2.01.49.85.74,1.8.74,2.87,0,1.15-.32,2.16-.96,3.05-.64.89-1.55,1.52-2.75,1.91l3.73,6.56h-5.91ZM124.56,83.36h2.13c.52,0,.9-.12,1.16-.35.26-.23.39-.6.39-1.1,0-.45-.13-.81-.4-1.06-.27-.26-.65-.39-1.15-.39h-2.13v2.9Z"/>
  <path d="M127.8,93.09l-3.22-6.15h-.02v6.15h-5.37v-17.14h7.99c1.39,0,2.57.25,3.56.74.98.49,1.72,1.16,2.21,2.01.49.85.74,1.8.74,2.87,0,1.15-.32,2.16-.96,3.05-.64.89-1.55,1.52-2.75,1.91l3.73,6.56h-5.91ZM124.56,83.36h2.13c.52,0,.9-.12,1.16-.35.26-.23.39-.6.39-1.1,0-.45-.13-.81-.4-1.06-.27-.26-.65-.39-1.15-.39h-2.13v2.9Z"/>
  <polygon points="34.3 102 34.3 102.7 30.48 102.7 30.48 105.99 33.79 105.99 33.79 106.66 30.48 106.66 30.48 110.63 29.62 110.63 29.62 102 34.3 102"/>
  <path d="M35.18,101.54c.12-.11.27-.16.46-.16s.34.05.45.16c.11.11.17.25.17.43s-.06.31-.17.42c-.11.11-.27.16-.45.16s-.34-.05-.46-.16c-.12-.11-.18-.24-.18-.42s.06-.32.18-.43M36.06,110.63h-.87v-6.68h.87v6.68Z"/>
  <path d="M40.47,109.87v.76h-.8c-.64,0-1.13-.15-1.44-.46-.32-.31-.48-.82-.48-1.55v-3.93h-1.02v-.75h1.02v-1.69h.87v1.69h1.84v.75h-1.84v3.94c0,.47.09.8.26.97.17.18.47.26.91.26h.69Z"/>
  <path d="M46.62,104.56c.49.49.73,1.22.73,2.17v3.89h-.84v-3.83c0-.73-.18-1.28-.55-1.67-.37-.39-.87-.58-1.5-.58-.67,0-1.2.21-1.6.64-.4.43-.59,1.06-.59,1.89v3.55h-.87v-6.68h.87v1.64c.17-.57.48-1.01.93-1.31.45-.3.96-.45,1.54-.45.78,0,1.4.25,1.89.74"/>
  <path d="M53.09,109.55c.41-.3.65-.71.73-1.22h.91c-.12.71-.46,1.28-1.02,1.73-.55.44-1.26.66-2.1.66-.64,0-1.2-.14-1.69-.41-.49-.27-.88-.67-1.16-1.19-.28-.52-.42-1.13-.42-1.83s.14-1.31.42-1.83c.28-.52.66-.91,1.16-1.19.49-.27,1.06-.41,1.69-.41s1.22.14,1.69.41c.48.27.84.64,1.09,1.1.25.46.37.95.37,1.49,0,.23-.02.44-.05.62h-5.53c0,.56.12,1.03.35,1.41.22.38.52.66.87.84.36.18.75.27,1.16.27.6,0,1.11-.15,1.52-.45M50.43,104.83c-.36.18-.65.46-.87.83-.22.37-.34.83-.36,1.39h4.72c.03-.55-.06-1.01-.27-1.38-.21-.38-.5-.65-.86-.83-.36-.18-.75-.27-1.17-.27s-.83.09-1.19.27"/>
  <path d="M59.59,104.44c.44.38.71.9.81,1.55h-.82c-.05-.43-.23-.79-.53-1.07-.31-.28-.72-.42-1.23-.42-.44,0-.79.11-1.03.32-.25.22-.37.5-.37.86,0,.27.08.49.24.65.16.16.36.29.59.37.24.09.55.17.95.26.49.11.88.23,1.18.35.3.12.55.3.76.56.21.25.32.6.32,1.03,0,.53-.2.96-.59,1.3-.4.34-.92.51-1.57.51-.77,0-1.39-.19-1.88-.57-.49-.38-.78-.9-.87-1.56h.83c.05.44.24.8.58,1.08.33.28.79.42,1.36.42.42,0,.75-.11.99-.33.24-.22.36-.51.36-.86,0-.29-.08-.51-.24-.69-.16-.17-.37-.3-.61-.39-.24-.09-.57-.18-.98-.28-.48-.11-.87-.23-1.16-.34-.29-.11-.54-.29-.74-.53-.2-.24-.31-.57-.31-.98,0-.55.2-.99.6-1.32.4-.33.94-.5,1.63-.5.73,0,1.31.19,1.75.58"/>
  <path d="M65.31,104.44c.44.38.71.9.81,1.55h-.82c-.05-.43-.23-.79-.53-1.07-.31-.28-.72-.42-1.23-.42-.44,0-.79.11-1.03.32-.25.22-.37.5-.37.86,0,.27.08.49.24.65.16.16.36.29.59.37.24.09.55.17.95.26.49.11.88.23,1.18.35.3.12.55.3.76.56.21.25.32.6.32,1.03,0,.53-.2.96-.59,1.3-.4.34-.92.51-1.57.51-.77,0-1.39-.19-1.88-.57-.49-.38-.78-.9-.87-1.56h.83c.05.44.24.8.58,1.08.33.28.79.42,1.36.42.42,0,.75-.11.99-.33.24-.22.36-.51.36-.86,0-.29-.08-.51-.24-.69-.16-.17-.37-.3-.61-.39-.24-.09-.57-.18-.98-.28-.48-.11-.87-.23-1.16-.34-.29-.11-.54-.29-.74-.53-.2-.24-.31-.57-.31-.98,0-.55.2-.99.6-1.32.4-.33.94-.5,1.63-.5.73,0,1.31.19,1.75.58"/>
  <path d="M76.75,110.63l-2.13-2.34s.01.1.01.17c0,.11-.01.24-.04.39-.07.55-.3.99-.7,1.34-.4.35-.89.52-1.48.52-.48,0-.92-.1-1.3-.31-.39-.21-.69-.5-.91-.89-.22-.38-.33-.83-.33-1.33s.1-.94.29-1.31c.2-.37.46-.64.8-.83.33-.19.7-.28,1.1-.28.15,0,.31.02.48.06-.16-.18-.24-.27-.24-.28-.26-.29-.46-.57-.59-.83-.13-.26-.2-.56-.2-.92,0-.33.08-.63.24-.92.16-.29.4-.52.72-.69.32-.18.7-.26,1.15-.26.7,0,1.23.18,1.59.54.36.36.56.81.61,1.35.04.2.05.4.04.61h-.82s.01-.11.01-.18c0-.08,0-.14-.01-.17,0-.45-.12-.8-.37-1.05-.25-.25-.59-.38-1.03-.38-.41,0-.73.12-.96.36-.23.24-.35.53-.35.86,0,.29.05.53.16.73.11.2.27.43.49.68l4.67,5.36h-.91ZM73.63,109.49c.31-.31.47-.72.47-1.21,0-.34-.09-.66-.27-.94-.18-.29-.41-.51-.7-.67-.29-.16-.59-.24-.9-.24-.46,0-.85.15-1.14.44-.3.29-.45.72-.45,1.27s.17,1,.51,1.32c.34.33.76.49,1.26.49s.9-.16,1.22-.47"/>
  <path d="M85.91,110.63l-2.36-3.6h-1.39v3.6h-.87v-8.63h2.64c.97,0,1.69.23,2.17.69.48.46.72,1.07.72,1.85,0,.72-.2,1.29-.61,1.71-.4.42-.99.68-1.76.76l2.44,3.62h-.98ZM82.15,106.38h1.71c1.39,0,2.08-.6,2.08-1.8s-.69-1.84-2.08-1.84h-1.71v3.63Z"/>
  <path d="M93.04,109.55c.41-.3.65-.71.73-1.22h.91c-.12.71-.46,1.28-1.02,1.73-.56.44-1.26.66-2.1.66-.64,0-1.2-.14-1.69-.41-.49-.27-.88-.67-1.16-1.19-.28-.52-.42-1.13-.42-1.83s.14-1.31.42-1.83c.28-.52.66-.91,1.16-1.19.49-.27,1.06-.41,1.69-.41s1.22.14,1.69.41c.48.27.84.64,1.09,1.1.25.46.37.95.37,1.49,0,.23-.02.44-.05.62h-5.53c0,.56.12,1.03.35,1.41.22.38.52.66.87.84.36.18.75.27,1.16.27.6,0,1.11-.15,1.52-.45M90.38,104.83c-.36.18-.65.46-.87.83-.22.37-.34.83-.36,1.39h4.72c.03-.55-.06-1.01-.27-1.38-.21-.38-.5-.65-.86-.83-.36-.18-.75-.27-1.17-.27s-.83.09-1.19.27"/>
  <polygon points="99.1 109.66 101.34 103.95 102.27 103.95 99.58 110.63 98.6 110.63 95.91 103.95 96.84 103.95 99.1 109.66"/>
  <path d="M103.75,101.54c.12-.11.27-.16.46-.16s.34.05.45.16c.11.11.17.25.17.43s-.06.31-.17.42c-.11.11-.27.16-.45.16s-.34-.05-.46-.16c-.12-.11-.18-.24-.18-.42s.06-.32.18-.43M104.64,110.63h-.87v-6.68h.87v6.68Z"/>
  <path d="M111.3,109.55c.41-.3.65-.71.73-1.22h.91c-.12.71-.46,1.28-1.02,1.73-.56.44-1.26.66-2.1.66-.64,0-1.2-.14-1.69-.41-.49-.27-.88-.67-1.16-1.19-.28-.52-.42-1.13-.42-1.83s.14-1.31.42-1.83c.28-.52.66-.91,1.16-1.19.49-.27,1.06-.41,1.69-.41s1.22.14,1.69.41c.48.27.84.64,1.09,1.1.25.46.37.95.37,1.49,0,.23-.02.44-.05.62h-5.53c0,.56.12,1.03.35,1.41.22.38.52.66.87.84.36.18.75.27,1.16.27.6,0,1.11-.15,1.52-.45M108.63,104.83c-.36.18-.65.46-.87.83-.22.37-.34.83-.36,1.39h4.72c.03-.55-.06-1.01-.27-1.38-.21-.38-.5-.65-.86-.83-.36-.18-.75-.27-1.17-.27s-.83.09-1.19.27"/>
  <polygon points="123.91 103.95 121.94 110.63 121.04 110.63 119.03 104.95 117 110.63 116.11 110.63 114.14 103.95 115 103.95 116.6 109.73 118.6 103.95 119.48 103.95 121.5 109.73 123.08 103.95 123.91 103.95"/>
  <path d="M129.15,104.44c.44.38.71.9.81,1.55h-.82c-.05-.43-.23-.79-.53-1.07-.31-.28-.72-.42-1.23-.42-.44,0-.79.11-1.03.32-.25.22-.37.5-.37.86,0,.27.08.49.24.65.16.16.36.29.59.37.24.09.55.17.95.26.49.11.88.23,1.18.35.3.12.55.3.76.56.21.25.32.6.32,1.03,0,.53-.2.96-.59,1.3-.4.34-.92.51-1.57.51-.77,0-1.39-.19-1.88-.57-.49-.38-.78-.9-.87-1.56h.83c.05.44.24.8.58,1.08.33.28.79.42,1.36.42.42,0,.75-.11.99-.33.24-.22.35-.51.35-.86,0-.29-.08-.51-.24-.69-.16-.17-.37-.3-.61-.39-.24-.09-.57-.18-.98-.28-.48-.11-.87-.23-1.16-.34-.29-.11-.54-.29-.74-.53-.2-.24-.31-.57-.31-.98,0-.55.2-.99.6-1.32.4-.33.94-.5,1.63-.5.73,0,1.31.19,1.75.58"/>
</svg>